<?xml version="1.0" encoding="UTF-8" standalone="no"?>
<svg
   xmlns:dc="http://purl.org/dc/elements/1.1/"
   xmlns:cc="http://creativecommons.org/ns#"
   xmlns:rdf="http://www.w3.org/1999/02/22-rdf-syntax-ns#"
   xmlns:svg="http://www.w3.org/2000/svg"
   xmlns="http://www.w3.org/2000/svg"
   xmlns:sodipodi="http://sodipodi.sourceforge.net/DTD/sodipodi-0.dtd"
   xmlns:inkscape="http://www.inkscape.org/namespaces/inkscape"
   version="1.0"
   width="512"
   height="512"
   viewBox="0 0 384.00003 383.99997"
   preserveAspectRatio="xMidYMid meet"
   id="svg50"
   sodipodi:docname="logo512.svg"
   inkscape:version="1.0.2-2 (e86c870879, 2021-01-15)">
  <metadata
     id="metadata56">
    <rdf:RDF>
      <cc:Work
         rdf:about="">
        <dc:format>image/svg+xml</dc:format>
        <dc:type
           rdf:resource="http://purl.org/dc/dcmitype/StillImage" />
        <dc:title></dc:title>
      </cc:Work>
    </rdf:RDF>
  </metadata>
  <defs
     id="defs54" />
  <sodipodi:namedview
     pagecolor="#ffffff"
     bordercolor="#666666"
     borderopacity="1"
     objecttolerance="10"
     gridtolerance="10"
     guidetolerance="10"
     inkscape:pageopacity="0"
     inkscape:pageshadow="2"
     inkscape:window-width="1280"
     inkscape:window-height="953"
     id="namedview52"
     showgrid="false"
     inkscape:zoom="0.66587205"
     inkscape:cx="231.98803"
     inkscape:cy="380.32943"
     inkscape:window-x="-8"
     inkscape:window-y="-8"
     inkscape:window-maximized="1"
     inkscape:current-layer="g48"
     inkscape:document-units="cm"
     units="px"
     inkscape:document-rotation="0"
     width="10cm" />
  <g
     transform="matrix(0.1,0,0,-0.1,0,140)"
     fill="#000000"
     stroke="none"
     id="g48">
    <g
       id="g13"
       transform="matrix(4.923077,0,0,4.923077,-6897.4604,1485.2802)">
      <path
         d="m 1948.9991,-28.322839 c -31,-18 -98,-129.999991 -87,-143.999991 7,-9 7,-21 0,-39 -15,-40 -15,-40 45,-85 44,-32 65,-41 95,-41 h 40 v 65 65 l 45,11 c 53,13 65,26 72,76.99999 l 5,39.000001 -50,7 c -42,5 -51,10 -56,31 -6,22 -12,25 -49,25 -23,0 -50,-5 -60,-11 z"
         id="path2"
         style="fill:#94c21c;fill-opacity:1" />
      <path
         d="m 1645.9991,-243.32283 c -52,-55 -46,-75 36,-135 l 70,-52 -74,-77 c -78,-81 -101,-117 -121,-185 -14,-47 -46,-59 -67,-26 -12,20 -56.9999,29 -70.9999,15 -9,-10 20,-61 45,-78 18.9999,-13 58.9999,-16 234.9999,-16 117,0 213,3 213,6 0,11 -23,49 -34,56 -6,4 -23,8 -38,8 -44,0 -34,27 22,61 l 50,31 v 142 143 l -104,71 c -57,40 -110,72 -116,72 -7,0 -28,-16 -46,-36 z m 111,-49 c 49,-35 62,-50 58,-65 -12,-45 -30,-44 -98,1 -35,24 -65,48 -65,52 0,8 32,56 38,57 2,0 32,-20 67,-45 z"
         id="path4"
         style="fill:#94c21c;fill-opacity:1" />
      <path
         d="m 1951.9991,-570.32283 c 0,-194 7,-227 50,-227 17,0 19,12 24,138 3,75 8,167 12,205 l 6,67 h -46 -46 z"
         id="path6"
         style="fill:#94c21c;fill-opacity:1" />
    </g>
  </g>
</svg>
